REM DIRINDEX 1\2,1\3,1\4,1\6,1\5\7,1\5\8
REM DIRNAME folder01,folder02,folder03,folder04,folder05,folder06,folder07,folder08
TITLE ""
FILE "DB4500_5th_3B_16.mp3" MP3
  TRACK 01 AUDIO
    TITLE "0:"
    INDEX 01 00:00:00
  TRACK 02 AUDIO
    TITLE "2:cjc114_2182"
    INDEX 01 00:00:03
  TRACK 03 AUDIO
    TITLE "0:"
    INDEX 01 00:01:13
  TRACK 04 AUDIO
    TITLE "3:cjc114_2183"
    INDEX 01 00:01:40
  TRACK 05 AUDIO
    TITLE "0:"
    INDEX 01 00:03:14
  TRACK 06 AUDIO
    TITLE "4:cjc114_2184"
    INDEX 01 00:03:43
  TRACK 07 AUDIO
    TITLE "0:"
    INDEX 01 00:07:43
  TRACK 08 AUDIO
    TITLE "2:cjc114_2185"
    INDEX 01 00:08:24
  TRACK 09 AUDIO
    TITLE "0:"
    INDEX 01 00:09:42
  TRACK 10 AUDIO
    TITLE "3:cjc114_2186"
    INDEX 01 00:09:69
  TRACK 11 AUDIO
    TITLE "0:"
    INDEX 01 00:11:11
  TRACK 12 AUDIO
    TITLE "4:cjc114_2187"
    INDEX 01 00:11:40
  TRACK 13 AUDIO
    TITLE "0:"
    INDEX 01 00:14:19
  TRACK 14 AUDIO
    TITLE "2:cjc114_2188"
    INDEX 01 00:14:74
  TRACK 15 AUDIO
    TITLE "0:"
    INDEX 01 00:16:14
  TRACK 16 AUDIO
    TITLE "3:cjc114_2189"
    INDEX 01 00:16:44
  TRACK 17 AUDIO
    TITLE "0:"
    INDEX 01 00:18:11
  TRACK 18 AUDIO
    TITLE "4:cjc114_2190"
    INDEX 01 00:18:41
  TRACK 19 AUDIO
    TITLE "0:"
    INDEX 01 00:21:33
  TRACK 20 AUDIO
    TITLE "2:cjc114_2191"
    INDEX 01 00:22:13
  TRACK 21 AUDIO
    TITLE "0:"
    INDEX 01 00:23:20
  TRACK 22 AUDIO
    TITLE "3:cjc114_2192"
    INDEX 01 00:23:48
  TRACK 23 AUDIO
    TITLE "0:"
    INDEX 01 00:25:11
  TRACK 24 AUDIO
    TITLE "4:cjc114_2193"
    INDEX 01 00:25:39
  TRACK 25 AUDIO
    TITLE "0:"
    INDEX 01 00:28:17
  TRACK 26 AUDIO
    TITLE "2:cjc114_2194"
    INDEX 01 00:28:70
  TRACK 27 AUDIO
    TITLE "0:"
    INDEX 01 00:29:74
  TRACK 28 AUDIO
    TITLE "3:cjc114_2195"
    INDEX 01 00:30:28
  TRACK 29 AUDIO
    TITLE "0:"
    INDEX 01 00:31:31
  TRACK 30 AUDIO
    TITLE "4:cjc114_2196"
    INDEX 01 00:31:63
  TRACK 31 AUDIO
    TITLE "0:"
    INDEX 01 00:33:71
  TRACK 32 AUDIO
    TITLE "2:cjc114_2197"
    INDEX 01 00:34:49
  TRACK 33 AUDIO
    TITLE "0:"
    INDEX 01 00:35:68
  TRACK 34 AUDIO
    TITLE "3:cjc114_2198"
    INDEX 01 00:36:23
  TRACK 35 AUDIO
    TITLE "0:"
    INDEX 01 00:37:48
  TRACK 36 AUDIO
    TITLE "4:cjc114_2199"
    INDEX 01 00:38:00
  TRACK 37 AUDIO
    TITLE "0:"
    INDEX 01 00:42:08
  TRACK 38 AUDIO
    TITLE "2:cjc114_2200"
    INDEX 01 00:42:63
  TRACK 39 AUDIO
    TITLE "0:"
    INDEX 01 00:44:07
  TRACK 40 AUDIO
    TITLE "3:cjc114_2201"
    INDEX 01 00:44:34
  TRACK 41 AUDIO
    TITLE "0:"
    INDEX 01 00:46:09
  TRACK 42 AUDIO
    TITLE "4:cjc114_2202"
    INDEX 01 00:46:37
  TRACK 43 AUDIO
    TITLE "0:"
    INDEX 01 00:49:45
  TRACK 44 AUDIO
    TITLE "2:cjc114_2203"
    INDEX 01 00:50:17
  TRACK 45 AUDIO
    TITLE "0:"
    INDEX 01 00:51:28
  TRACK 46 AUDIO
    TITLE "3:cjc114_2204"
    INDEX 01 00:51:58
  TRACK 47 AUDIO
    TITLE "0:"
    INDEX 01 00:53:27
  TRACK 48 AUDIO
    TITLE "4:cjc114_2205"
    INDEX 01 00:53:57
  TRACK 49 AUDIO
    TITLE "0:"
    INDEX 01 00:58:28
  TRACK 50 AUDIO
    TITLE "2:cjc114_2206"
    INDEX 01 00:59:24
  TRACK 51 AUDIO
    TITLE "0:"
    INDEX 01 01:00:19
  TRACK 52 AUDIO
    TITLE "3:cjc114_2207"
    INDEX 01 01:00:47
  TRACK 53 AUDIO
    TITLE "0:"
    INDEX 01 01:02:08
  TRACK 54 AUDIO
    TITLE "4:cjc114_2208"
    INDEX 01 01:02:38
  TRACK 55 AUDIO
    TITLE "0:"
    INDEX 01 01:07:04
  TRACK 56 AUDIO
    TITLE "2:cjc114_2209"
    INDEX 01 01:07:57
  TRACK 57 AUDIO
    TITLE "0:"
    INDEX 01 01:09:09
  TRACK 58 AUDIO
    TITLE "3:cjc114_2210"
    INDEX 01 01:09:40
  TRACK 59 AUDIO
    TITLE "0:"
    INDEX 01 01:11:03
  TRACK 60 AUDIO
    TITLE "4:cjc114_2211"
    INDEX 01 01:11:33
  TRACK 61 AUDIO
    TITLE "0:"
    INDEX 01 01:14:68
  TRACK 62 AUDIO
    TITLE "2:cjc114_2212"
    INDEX 01 01:15:66
  TRACK 63 AUDIO
    TITLE "0:"
    INDEX 01 01:16:69
  TRACK 64 AUDIO
    TITLE "3:cjc114_2213"
    INDEX 01 01:17:24
  TRACK 65 AUDIO
    TITLE "0:"
    INDEX 01 01:18:68
  TRACK 66 AUDIO
    TITLE "4:cjc114_2214"
    INDEX 01 01:19:21
  TRACK 67 AUDIO
    TITLE "0:"
    INDEX 01 01:22:62
  TRACK 68 AUDIO
    TITLE "2:cjc114_2215"
    INDEX 01 01:23:40
  TRACK 69 AUDIO
    TITLE "0:"
    INDEX 01 01:24:59
  TRACK 70 AUDIO
    TITLE "3:cjc114_2216"
    INDEX 01 01:25:13
  TRACK 71 AUDIO
    TITLE "0:"
    INDEX 01 01:26:56
  TRACK 72 AUDIO
    TITLE "4:cjc114_2217"
    INDEX 01 01:27:10
  TRACK 73 AUDIO
    TITLE "0:"
    INDEX 01 01:30:03
  TRACK 74 AUDIO
    TITLE "2:cjc114_2218"
    INDEX 01 01:30:58
  TRACK 75 AUDIO
    TITLE "0:"
    INDEX 01 01:31:69
  TRACK 76 AUDIO
    TITLE "3:cjc114_2219"
    INDEX 01 01:32:23
  TRACK 77 AUDIO
    TITLE "0:"
    INDEX 01 01:33:29
  TRACK 78 AUDIO
    TITLE "4:cjc114_2220"
    INDEX 01 01:33:58
  TRACK 79 AUDIO
    TITLE "0:"
    INDEX 01 01:37:11
